ply
format ascii 1.0
comment Author: CloudCompare (TELECOM PARISTECH/EDF R&D)
obj_info Generated by CloudCompare!
element vertex 8
property float x
property float y
property float z
property uchar red
property uchar green
property uchar blue
property float nx
property float ny
property float nz
element face 2
property list uchar int vertex_indices
end_header
0 0 0 0 0 255 0.999999 0.000977516 0.000977516 
0 0 1 255 0 0 0.707106 0.00138377 0.707106 
0 1 0 0 0 255 0.999999 0.000977516 0.000977516 
0 1 1 255 0 0 0.409841 -0.409841 0.814899 
1 0 0 0 0 255 0.409841 -0.409841 0.814899 
1 0 1 255 0 0 0.999999 0.000977516 0.000977516 
1 1 0 0 0 255 0.999999 0.000977516 0.000977516 
1 1 1 255 0 0 0.00138377 -0.707106 0.707106 
3 3 1 4 
3 3 4 7 
