ply
format ascii 1.0
comment PyntCloud is cool
element vertex 6
property float x
property float y
property float z
property float nx
property float ny
property float nz
property uchar red
property uchar green
property uchar blue
property uchar alpha
element face 8
property list uchar int vertex_index
end_header
0.5 0 0.5 0 -1 0 255 0 0 255
0 0.5 0.5 -1 0 0 255 0 0 255
0.5 0.5 0 0 0 -1 0 255 0 255
1 0.5 0.5 1 0 0 255 0 0 255
0.5 1 0.5 0 1 0 255 0 0 255
0.5 0.5 1 0 0 1 0 0 255 255
3 0 1 2
3 0 3 2
3 3 4 2
3 4 1 2
3 0 1 5
3 0 3 5
3 3 4 5
3 4 1 5
